<svg width="833" height="125" viewBox="0 0 833 125" fill="none" xmlns="http://www.w3.org/2000/svg">
<path d="M236 5.00001C237.415 5.1779 237.415 5.1779 238.859 5.35939C250.911 6.98795 259.282 11.5101 267 21C273.518 30.4534 276.005 38.6918 277 50C277.242 49.3619 277.485 48.7238 277.734 48.0664C278.07 47.2401 278.405 46.4138 278.75 45.5625C279.075 44.7388 279.4 43.9151 279.734 43.0664C281 41 281 41 283.141 40.2149C284.061 40.1085 284.061 40.1085 285 40C285.103 39.3606 285.206 38.7213 285.312 38.0625C285.539 37.3819 285.766 36.7013 286 36C291.558 34.1473 298.015 33.8485 303.531 35.9766C308.68 39.0174 308.68 39.0174 309.707 42.1719C309.804 42.7752 309.9 43.3784 310 44C310.66 44 311.32 44 312 44C313.32 46.31 314.64 48.62 316 51C316.389 50.2756 316.779 49.5511 317.18 48.8047C321.612 41.1458 326.425 36.006 335.074 33.3672C341.918 32.0623 348.686 33.1224 355 36C357.966 38.2358 358.889 39.322 359.496 43.0234C359.274 55.7339 359.274 55.7339 354.348 60.6484C349.908 64.6468 346.89 66.1414 340.812 66.0625C339.911 66.0535 339.01 66.0445 338.082 66.0352C337.395 66.0236 336.708 66.012 336 66C336.599 68.3517 337.269 70.686 338 73C338.66 73.33 339.32 73.66 340 74C340 74.66 340 75.32 340 76C342.64 76 345.28 76 348 76C348.082 75.4225 348.165 74.845 348.25 74.25C349.31 71.0693 350.2 69.9123 353 68C356.359 67.6625 359.636 67.7689 363 68C363.33 69.65 363.66 71.3 364 73C364.66 73 365.32 73 366 73C366.645 78.1579 365.236 81.081 362.43 85.2344C359.588 88.7439 356.312 90.1346 352 91C341.01 91.7559 333.515 90.5114 324.832 83.6953C322.016 81.0893 320.065 78.2264 318 75C317.709 75.6407 317.417 76.2813 317.117 76.9414C313.797 83.9467 310.55 90.7597 303.125 94C298.876 95.2764 295.197 95.5862 291 94C279.949 87.0026 277.906 75.8724 275 64C274.72 64.7618 274.441 65.5237 274.152 66.3086C269.515 78.252 262.31 88.5942 250.562 94.4375C243.905 97.1119 237.593 96.8022 231 94C229.179 92.1789 229.674 89.3109 229.535 86.8516C229.459 85.5492 229.382 84.2469 229.303 82.905C229.244 81.8589 229.244 81.8589 229.185 80.7916C228.978 77.1299 228.753 73.4694 228.531 69.8086C228.441 68.3124 228.352 66.8161 228.262 65.3198C226.984 43.0197 226.984 43.0197 223.965 20.907C223.244 16.8855 222.691 13.087 223 9.00001C226.936 3.97874 230.016 3.85043 236 5.00001ZM246 23C245.697 32.8992 246.231 42.6878 246.937 52.5625C247.024 53.7874 247.111 55.0124 247.201 56.2744C247.596 61.5754 248.065 66.7628 249 72C253.6 68.0386 256.776 64.0539 258 58C258.294 46.7541 256.255 33.5623 248.332 25.1758C247.562 24.4578 246.793 23.7398 246 23ZM336.187 47.1875C334.633 49.5598 334.775 51.2204 335 54C337.331 54.4187 337.331 54.4187 340 54C342.464 51.7951 342.464 51.7951 344 49C343.67 48.01 343.34 47.02 343 46C339.39 45.7039 339.39 45.7039 336.187 47.1875ZM295 52C292.229 60.4854 292.842 66.7094 296 75C296.99 75 297.98 75 299 75C301.546 70.2266 301.813 65.2696 301 60C299.678 57.0468 298.1 54.4649 296 52C295.67 52 295.34 52 295 52Z" fill="#FF6B36"/>
<path d="M427 0.999988C429.384 2.46198 430.986 3.98558 433 5.99999C433 6.98999 433 7.97999 433 8.99999C433.907 9.10311 434.815 9.20624 435.75 9.31249C439.059 10.0125 440.67 10.5799 443 13C443 14.32 443 15.64 443 17C443.742 17.0825 444.485 17.165 445.25 17.25C448.587 18.16 449.9 19.278 452 22C452 23.32 452 24.64 452 26C452.99 26 453.98 26 455 26C458.453 34.0142 459.723 41.2947 460 50C460.495 48.845 460.99 47.69 461.5 46.5C464.163 41.1251 468.554 35.7231 474 33C479.538 32.7692 479.538 32.7692 482 34C482 34.99 482 35.98 482 37C482.592 37.0258 483.183 37.0516 483.793 37.0781C484.978 37.1632 484.978 37.1632 486.188 37.25C486.965 37.2964 487.742 37.3428 488.543 37.3906C492.395 38.346 494.918 40.2453 497.018 43.6499C497.994 45.593 498.856 47.5532 499.688 49.5625C499.991 50.272 500.294 50.9814 500.606 51.7124C502.644 56.6572 503.883 61.4109 504.602 66.7226C505.142 69.8095 506.471 72.2891 508 75C508 75.66 508 76.32 508 77C509.98 77.495 509.98 77.495 512 78C512 81.63 512 85.26 512 89C510.35 89 508.7 89 507 89C507 89.99 507 90.98 507 92C503.508 93.7461 499.716 92.8341 496 92C493.718 90.8612 492.012 89.5992 490 88C489.092 88.6394 488.185 89.2787 487.25 89.9375C482.342 93.052 478.826 93.3884 473 93C468.043 91.888 464.232 90.1466 461.098 85.9609C458.816 81.8839 457.413 77.4378 456 73C455.636 73.7128 455.273 74.4257 454.898 75.1601C448.708 86.9532 441.939 94.5369 429 99C424.624 99.586 420.796 99.2316 416.562 98C413.003 95.2221 412.63 92.287 412 88C411.646 82.9631 411.554 77.9262 411.48 72.8789C411.454 71.4097 411.427 69.9406 411.4 68.4714C411.346 65.4028 411.299 62.3342 411.257 59.2654C411.202 55.3537 411.125 51.4429 411.041 47.5318C410.98 44.5009 410.933 41.4698 410.89 38.4386C410.867 36.9973 410.84 35.5562 410.807 34.1152C410.632 26.1167 410.7 19.3713 414 12C414.66 11.67 415.32 11.34 416 11C416.838 9.00319 417.466 6.97354 418.121 4.91014C419.961 0.910554 423.021 0.352245 427 0.999988ZM431 26C431.33 41.51 431.66 57.02 432 73C433.98 70.525 433.98 70.525 436 68C436.99 67.505 436.99 67.505 438 67C441.629 54.7557 441.528 44.4944 437.328 32.4101C435.843 29.3518 435.843 29.3518 431 26ZM477 55C474.842 61.0703 474.791 66.5937 475 73C475.66 73 476.32 73 477 73C478.298 67.2392 479.257 61.9126 479 56C478.34 55.67 477.68 55.34 477 55Z" fill="#FF6B36"/>
<path d="M76.25 15.875C77.142 15.893 78.0341 15.9111 78.9531 15.9297C79.9663 15.9645 79.9663 15.9645 81 16C83.6156 21.7998 85.0486 26.7663 85.3164 33.1758C85.3587 34.1604 85.401 35.1451 85.4446 36.1597C85.6052 40.455 85.7617 44.7503 85.9004 49.0464C85.9843 51.5334 86.0903 54.018 86.2031 56.5039C86.6294 71.589 83.809 86.7321 74.75 99.0625C70.9027 101.773 67.6811 102.509 63 102C51.272 97.7139 46.2816 84.2951 41 74C40.7087 75.2787 40.4174 76.5575 40.1172 77.875C36.0089 95.1723 36.0089 95.1723 31.8906 99.8867C27.9289 102.22 23.4059 101.564 19 101C18.67 100.01 18.34 99.02 18 98C17.01 98 16.02 98 15 98C11.1357 86.6905 8.40693 75.36 6.20484 63.6177C5.68618 60.868 5.14373 58.1237 4.59962 55.3789C0.304642 33.1927 0.304642 33.1927 2.00001 26C4.9867 23.6219 6.7456 23.0312 10.5625 22.5625C14.6766 23.0861 15.4596 23.8171 18 27C18.9732 29.9133 18.9732 29.9133 19.6328 33.2695C19.8816 34.4883 20.1304 35.7071 20.3867 36.9629C20.7522 38.8684 20.7522 38.8684 21.125 40.8125C21.6256 43.3194 22.1282 45.8259 22.6328 48.332C22.8652 49.4968 23.0975 50.6617 23.3369 51.8618C24.0653 55.309 24.9454 58.6404 26 62C26.2307 61.0126 26.4615 60.0251 26.6992 59.0078C27.0276 57.7132 27.357 56.419 27.6875 55.125C28.0007 53.8488 28.314 52.5726 28.6367 51.2578C30 48 30 48 32.3008 46.5781C35.0969 45.9792 37.6399 45.6652 40.5 45.625C41.4178 45.5966 42.3356 45.5683 43.2813 45.539C46.9449 46.1602 48.3991 47.3484 51 50C52.555 52.4449 53.7826 54.9987 55 57.625C55.3403 58.3327 55.6806 59.0404 56.0313 59.7695C56.7116 61.1843 57.3875 62.6013 58.0586 64.0205C59.3331 66.7003 60.6639 69.3505 62 72C62.6667 73.3333 63.3333 74.6667 64 76C64.33 76 64.66 76 65 76C67.0205 63.2802 67.2418 50.8546 67.125 38C67.1149 36.0495 67.1058 34.0989 67.0977 32.1484C67.0759 27.4321 67.0416 22.7161 67 18C70.3098 16.222 72.4709 15.7755 76.25 15.875Z" fill="#FF6B36"/>
<path d="M786.816 38.4493C790.005 38.095 791.385 38.1289 794.004 40.0743C797.992 45.3 798.325 51.4908 798.941 57.8243C799.028 58.6557 799.114 59.4872 799.203 60.3438C799.414 62.3784 799.616 64.4137 799.816 66.4493C801.136 66.4493 802.456 66.4493 803.816 66.4493C805.904 61.5943 807.84 56.9102 808.816 51.6993C809.711 47.1512 811.495 43.7706 814.816 40.4493C818.966 40.5291 821.222 40.9792 824.504 43.5743C832.473 54.4363 832.037 71.9744 832.112 84.7137C832.123 86.0738 832.143 87.4339 832.173 88.7938C832.404 99.4885 831.689 109.719 825.004 118.512C820.176 123.423 815.587 124.62 808.879 124.949C801.611 124.758 797.529 122.162 792.504 117.137C789.459 112.287 787.423 107.898 787.941 102.074C788.816 98.4493 788.816 98.4493 791.816 96.4493C794.191 96.3321 794.191 96.3321 796.816 96.5743C797.683 96.6387 798.549 96.7032 799.441 96.7696C802.471 97.6367 803.255 98.7632 804.816 101.449C805.504 104.199 805.504 104.199 805.816 106.449C809.44 104.777 809.44 104.777 811.47 101.583C812.029 98.1362 811.919 94.6802 811.879 91.1993C811.874 90.4542 811.87 89.7091 811.865 88.9415C811.853 87.1107 811.836 85.28 811.816 83.4493C810.826 83.9443 810.826 83.9443 809.816 84.4493C802.382 85.4852 796.679 84.3056 790.269 80.4141C784.537 75.8223 781.306 69.1901 780.062 62.0118C778.715 47.9836 778.715 47.9836 781.086 42.5274C781.657 41.8416 782.228 41.1559 782.816 40.4493C784.136 40.4493 785.456 40.4493 786.816 40.4493C786.816 39.7893 786.816 39.1293 786.816 38.4493Z" fill="#FF6B36"/>
<path d="M97.5 18.5C98.2528 18.4897 99.0056 18.4794 99.7812 18.4688C102.881 19.2108 104.054 20.5077 106 23C108.825 31.7393 108.559 41.863 109 51C109.57 50.523 110.14 50.0461 110.727 49.5547C114.29 47.1176 117.749 46.9037 122 47C127.085 48.4669 129.131 51.1145 131.727 55.4766C132.357 56.7257 132.357 56.7257 133 58C133.311 58.6147 133.621 59.2294 133.941 59.8628C136.883 66.0252 138.408 72.2007 139.75 78.875C139.97 79.8869 140.191 80.8988 140.418 81.9414C143.864 98.6597 143.864 98.6597 140.5 104.688C136.724 106.67 134.252 106.472 130 106C126.596 103.958 126.068 100.683 125 97C124.036 91.9142 123.285 86.7936 122.5 81.6777C122.252 80.1183 122.252 80.1183 122 78.5273C121.856 77.5862 121.711 76.6452 121.562 75.6755C120.983 72.9186 120.217 70.5402 119 68C118.34 67.67 117.68 67.34 117 67C116.902 67.6484 116.804 68.2968 116.703 68.9648C116.373 71.1285 116.036 73.2912 115.695 75.4531C115.129 79.0833 114.621 82.72 114.117 86.3594C113.787 88.6355 113.456 90.9115 113.125 93.1875C112.901 94.8725 112.901 94.8725 112.673 96.5916C112.515 97.648 112.358 98.7045 112.195 99.793C112.061 100.747 111.928 101.701 111.79 102.684C111 105 111 105 109.14 106.298C105.875 107.369 103.412 107.419 100 107C95.5696 103.554 93.4085 99.9998 92.6523 94.4472C92.6065 93.5439 92.5607 92.6406 92.5134 91.71C92.4567 90.6783 92.4001 89.6466 92.3417 88.5837C92.2895 87.4784 92.2373 86.3731 92.1836 85.2344C92.0915 83.5124 92.0915 83.5124 91.9976 81.7557C91.8028 78.0875 91.6196 74.4188 91.4375 70.75C91.2497 67.0956 91.0595 63.4413 90.8667 59.7872C90.7475 57.5157 90.6316 55.244 90.5194 52.9721C90.2104 46.9443 89.7179 40.9927 89 35C88.8511 32.8985 88.7405 30.7936 88.6875 28.6875C88.6501 27.7014 88.6127 26.7152 88.5742 25.6992C89.3782 20.6026 92.4846 18.4313 97.5 18.5Z" fill="#FF6B36"/>
<path d="M537.115 16.0743C538.265 16.0752 539.415 16.0761 540.6 16.077C549.94 16.2074 560.16 16.6872 567.365 23.4493C568.147 28.9202 568.147 28.9202 567.365 31.4493C564.53 34.3278 562.909 35.3789 558.86 35.9034C556.889 35.872 556.889 35.872 554.877 35.84C554.174 35.8343 553.471 35.8286 552.746 35.8228C550.514 35.8005 548.284 35.7503 546.053 35.6993C544.534 35.6792 543.015 35.661 541.496 35.6446C537.786 35.6007 534.076 35.5317 530.365 35.4493C530.365 38.4193 530.365 41.3893 530.365 44.4493C531.696 44.2018 531.696 44.2018 533.053 43.9493C538.783 43.1087 544.59 43.3712 550.365 43.4493C550.365 44.4393 550.365 45.4293 550.365 46.4493C551.17 46.5937 551.974 46.7381 552.803 46.8868C555.365 47.4493 555.365 47.4493 556.365 48.4493C556.956 55.655 556.956 55.655 554.553 58.8868C551.417 61.1267 549.094 61.5814 545.354 61.3282C544.596 61.2799 543.839 61.2316 543.059 61.1817C542.273 61.1257 541.487 61.0696 540.678 61.0118C539.881 60.9596 539.083 60.9074 538.262 60.8536C536.296 60.7241 534.331 60.5874 532.365 60.4493C532.442 61.3622 532.518 62.2751 532.597 63.2157C532.873 66.6161 533.134 70.017 533.385 73.4193C533.496 74.8892 533.614 76.3586 533.737 77.8275C533.914 79.944 534.07 82.0613 534.221 84.1798C534.32 85.4523 534.42 86.7249 534.522 88.036C534.35 91.7902 533.684 93.5272 531.365 96.4493C528.955 97.1915 528.955 97.1915 526.303 97.3243C525.425 97.3836 524.547 97.4429 523.643 97.504C521.365 97.4493 521.365 97.4493 519.365 96.4493C519.365 95.7893 519.365 95.1293 519.365 94.4493C518.045 94.1193 516.725 93.7893 515.365 93.4493C514.619 90.7377 514.205 88.2202 514.068 85.4129C514.028 84.6259 513.988 83.8388 513.947 83.0278C513.889 81.7573 513.889 81.7573 513.83 80.461C513.787 79.5734 513.744 78.6858 513.699 77.7713C513.562 74.8934 513.431 72.0152 513.303 69.1368C513.259 68.1641 513.215 67.1914 513.17 66.1893C512.157 43.4782 512.157 43.4782 512.053 32.5743C512.035 31.687 512.018 30.7998 512 29.8856C512.004 25.3593 512.016 21.8183 515.365 18.4493C522.11 15.6476 529.949 16.0645 537.115 16.0743Z" fill="#FF6B36"/>
<path d="M708.816 17.4493C708.816 18.4393 708.816 19.4293 708.816 20.4493C709.6 20.573 710.384 20.6968 711.191 20.8243C713.816 21.4493 713.816 21.4493 715.816 23.4493C715.68 27.1275 715.257 29.7015 713.379 32.8868C709.916 34.998 707.273 34.5729 703.301 34.3907C699.931 34.4702 697.632 35.6708 694.816 37.4493C694.704 40.6598 694.688 42.5056 695.816 45.4493C698.822 48.3068 702.268 50.3271 705.816 52.4493C719.966 61.5125 719.966 61.5125 721.816 68.4493C723.085 75.2822 723.213 81.8432 720.816 88.4493C718.379 91.5743 718.379 91.5743 715.816 93.4493C714.826 93.4493 713.836 93.4493 712.816 93.4493C712.321 95.4293 712.321 95.4293 711.816 97.4493C710.166 97.4493 708.516 97.4493 706.816 97.4493C706.816 98.4393 706.816 99.4293 706.816 100.449C698.619 102.916 689.38 102.366 681.816 98.4493C678.816 96.3243 678.816 96.3243 676.816 93.4493C676.422 90.4005 676.517 87.5033 676.816 84.4493C679.772 82.7232 681.502 82.2379 684.879 82.7618C688.543 83.2748 692.192 83.6887 695.879 84.0118C696.819 84.0956 697.758 84.1794 698.726 84.2657C699.416 84.3263 700.106 84.3869 700.816 84.4493C701.669 80.7754 701.924 77.4046 701.879 73.6368C701.87 72.661 701.861 71.6852 701.851 70.6798C701.84 69.9437 701.828 69.2077 701.816 68.4493C699.836 68.1193 697.856 67.7893 695.816 67.4493C695.816 66.4593 695.816 65.4693 695.816 64.4493C694.785 64.3668 693.754 64.2843 692.691 64.1993C687.627 63.2191 684.432 61.0652 680.816 57.4493C680.816 56.1293 680.816 54.8093 680.816 53.4493C679.496 53.1193 678.176 52.7893 676.816 52.4493C673.031 36.2585 673.031 36.2585 677.004 28.6993C680.231 23.5109 683.731 19.2331 689.586 16.9454C695.688 15.5882 702.812 15.6379 708.816 17.4493Z" fill="#FF6B36"/>
<path d="M164.938 34.125C166.189 34.2216 166.189 34.2216 167.465 34.3203C170.849 35.2277 172.54 36.5026 175 39C176.441 42.2148 176.441 42.2148 177.563 45.9375C177.769 46.5984 177.975 47.2594 178.188 47.9404C179.171 51.1099 180.084 54.2964 180.992 57.4882C184.952 71.4083 184.952 71.4083 195 81C196.414 84.2706 196.053 85.8163 195.063 89.25C193 92 193 92 189.188 92.9375C185.683 93.1318 182.432 92.7721 179 92C179 91.34 179 90.68 179 90C176.094 88.7433 174.204 88 171 88C170.381 88.9281 169.763 89.8562 169.125 90.8125C166.865 94.2026 165.748 95.5006 162 97C156.355 97.7526 151.774 97.3306 147 94C139.822 85.6253 140.424 74.6609 141.207 64.2461C142.295 56.0313 146.067 46.9331 152 41C153.32 41 154.64 41 156 41C156 39.35 156 37.7 156 36C159.172 34.1097 161.276 33.7751 164.938 34.125ZM160 60C158.149 63.9285 157.78 66.9877 157.875 71.3125C157.893 72.3811 157.911 73.4497 157.93 74.5507C157.953 75.359 157.976 76.1672 158 77C159.32 77 160.64 77 162 77C163.225 71.3335 163.092 65.7629 163 60C162.01 60 161.02 60 160 60Z" fill="#FF6B36"/>
<path d="M627.365 27.4493C628.49 29.9493 628.49 29.9493 629.365 32.4493C630.355 32.7793 631.345 33.1093 632.365 33.4493C632.365 34.1093 632.365 34.7693 632.365 35.4493C633.355 35.7793 634.345 36.1093 635.365 36.4493C635.365 37.7693 635.365 39.0893 635.365 40.4493C637.856 41.1364 639.744 41.4493 642.365 41.4493C644.598 39.0964 644.598 39.0964 646.803 36.1368C653.256 27.7841 653.256 27.7841 657.655 27.086C658.425 27.1028 659.196 27.1195 659.99 27.1368C660.766 27.1407 661.542 27.1445 662.342 27.1485C664.365 27.4493 664.365 27.4493 666.365 29.4493C667.593 35.8604 664.807 39.5516 661.287 44.8009C659.969 46.6177 658.588 48.3905 657.158 50.1212C655.175 52.3176 655.175 52.3176 654.928 55.0743C655.441 57.8591 656.28 58.6248 658.365 60.4493C658.365 61.1093 658.365 61.7693 658.365 62.4493C658.938 62.6904 659.51 62.9314 660.1 63.1798C662.81 64.6982 664.53 66.4638 666.615 68.7618C667.322 69.5211 668.028 70.2803 668.756 71.0626C670.601 73.7993 670.709 75.2178 670.365 78.4493C669.045 78.4493 667.725 78.4493 666.365 78.4493C666.365 79.4393 666.365 80.4293 666.365 81.4493C661.094 82.2611 657.013 82.573 652.479 79.4806C650.018 77.2104 647.691 74.8564 645.365 72.4493C644.705 72.1193 644.045 71.7893 643.365 71.4493C643.105 72.1493 642.845 72.8492 642.576 73.5704C641.257 76.7073 639.695 79.5671 637.99 82.5118C637.405 83.534 636.82 84.5563 636.217 85.6095C633.732 89.4211 631.853 92.0061 627.428 93.3243C624.126 93.4591 622.282 92.949 619.365 91.4493C618.365 90.4493 618.365 90.4493 617.955 86.5626C618.023 80.3736 620.879 75.8687 623.928 70.6368C624.982 68.8032 626.025 66.9635 627.057 65.1173C627.523 64.3157 627.989 63.5142 628.469 62.6883C629.527 60.0451 629.46 59.0459 628.365 56.4493C626.592 54.349 624.794 52.3369 622.928 50.3243C618.389 45.1958 614.935 40.657 615.365 33.4493C616.555 30.2768 617.548 29.0488 620.24 27.0743C623.073 26.2412 624.617 26.3643 627.365 27.4493Z" fill="#FF6B36"/>
<path d="M756.976 43.6213C759.494 44.7545 760.316 46.1369 761.816 48.4494C762.768 51.1191 762.768 51.1191 763.57 54.133C763.867 55.2255 764.164 56.318 764.471 57.4435C764.92 59.148 764.92 59.148 765.379 60.8869C765.982 63.1363 766.587 65.385 767.195 67.633C767.591 69.1266 767.591 69.1266 767.994 70.6503C768.767 73.4625 768.767 73.4625 769.918 76.1254C770.816 78.4494 770.816 78.4494 770.816 81.4494C773.456 81.7794 776.096 82.1094 778.816 82.4494C779.973 86.499 779.741 88.7009 777.816 92.4494C775.108 95.158 773.047 95.1413 769.324 95.4885C765.153 95.4235 761.647 93.9846 757.816 92.4494C756.641 92.0575 755.465 91.6656 754.254 91.2619C753.449 90.9938 752.645 90.7256 751.816 90.4494C751.486 91.4394 751.156 92.4294 750.816 93.4494C747.997 94.8591 745.584 94.6192 742.441 94.6369C740.728 94.6582 740.728 94.6582 738.98 94.6799C735.977 94.4611 734.337 94.0202 731.816 92.4494C731.816 91.1294 731.816 89.8094 731.816 88.4494C730.826 88.4494 729.836 88.4494 728.816 88.4494C723.657 77.7852 722.806 65.5987 726.379 54.2619C732.104 40.781 744.306 41.0731 756.976 43.6213ZM743.816 60.4494C742.826 65.7294 741.836 71.0094 740.816 76.4494C742.466 76.4494 744.116 76.4494 745.816 76.4494C747.176 73.7292 747.023 71.4832 747.066 68.4494C747.092 67.3769 747.118 66.3044 747.144 65.1994C747.036 64.2919 746.928 63.3844 746.816 62.4494C745.826 61.7894 744.836 61.1294 743.816 60.4494Z" fill="#FF6B36"/>
<path d="M383 32.0001C389.965 31.4862 395.187 31.9149 401 36.0001C403.523 38.2707 404.853 39.6823 405.234 43.0977C405.248 45.0667 405.133 47.0356 405 49.0001C400.25 50.1251 400.25 50.1251 398 49.0001C392.393 48.7863 392.393 48.7863 387 50.0001C388.455 53.7619 390.16 54.9133 393.687 56.7501C399.846 60.2615 405.434 65.2087 408 72.0001C408.371 75.4962 408.371 75.4962 408.437 79.4376C408.497 81.3847 408.497 81.3847 408.559 83.3712C407.688 89.0291 404.361 90.9999 399.937 94.2501C394.838 97.2883 389.839 97.6469 384 97.0001C378.16 95.4582 372.153 93.5686 368 89.0001C366.875 86.6251 366.875 86.6251 367 84.0001C369.597 79.7911 369.597 79.7911 372 78.0001C375.013 77.4127 377.785 77.7394 380.812 78.1251C381.601 78.1998 382.389 78.2746 383.201 78.3516C385.137 78.5393 387.069 78.7659 389 79.0001C384.824 73.4698 380.592 70.2226 374.586 66.7735C371.169 64.4298 368.853 61.7055 367 58.0001C366.418 51.252 366.803 45.9939 370 40.0001C371.32 40.0001 372.64 40.0001 374 40.0001C374.186 39.041 374.186 39.041 374.375 38.0626C374.581 37.3819 374.787 36.7013 375 36.0001C377.709 34.6457 380.009 34.935 383 35.0001C383 34.0101 383 33.0201 383 32.0001Z" fill="#FF6B36"/>
<path d="M587.178 38.1369C588.163 38.1078 589.149 38.0788 590.164 38.049C596.082 37.9973 599.767 38.3232 604.365 42.4494C610.061 49.1538 611.86 56.9551 611.682 65.6017C610.864 72.9607 608.016 78.646 602.365 83.4494C601.314 84.5631 601.314 84.5631 600.24 85.6994C596.88 88.8359 593.267 88.8001 588.897 88.715C581.971 87.9882 576.752 85.3161 571.928 80.3244C566.117 73.1283 564.763 65.5295 565.01 56.4181C565.715 50.528 567.712 45.5039 571.428 40.8869C576.073 37.4408 581.654 38.1904 587.178 38.1369ZM583.365 53.4494C583.338 55.5118 583.319 57.5743 583.303 59.6369C583.291 60.7854 583.28 61.934 583.268 63.1173C583.354 66.0424 583.687 68.6125 584.365 71.4494C586.675 71.4494 588.985 71.4494 591.365 71.4494C594.893 66.1579 593.544 59.3445 592.365 53.4494C589.395 53.4494 586.425 53.4494 583.365 53.4494Z" fill="#FF6B36"/>
<path d="M200.25 23.625C204.847 24.0847 206.575 24.8907 210 28C211.162 31.3603 211.519 34.7239 211.875 38.25C212.049 39.6538 212.049 39.6538 212.227 41.0859C212.509 43.3889 212.765 45.6918 213 48C214.107 48.2013 214.107 48.2013 215.237 48.4067C222.625 49.75 222.625 49.75 226 52C226.679 59.129 226.679 59.129 224.768 61.5803C222.556 63.3562 221.117 63.4843 218.312 63.6875C217.1 63.7861 217.1 63.7861 215.863 63.8867C215.248 63.9241 214.634 63.9615 214 64C214.091 64.8678 214.091 64.8678 214.184 65.7532C217.15 94.4179 217.15 94.4179 214.754 97.7148C211.53 100.077 207.908 100.22 204 100C200.539 98.1592 199.346 96.8755 197.911 93.2397C196.999 89.9966 196.6 87.0826 196.367 83.7266C196.283 82.5729 196.2 81.4191 196.113 80.2305C196.035 79.0407 195.956 77.8509 195.875 76.625C195.789 75.412 195.702 74.199 195.613 72.9492C195.402 69.9666 195.198 66.9836 195 64C193.732 63.8582 192.463 63.7164 191.156 63.5703C187.642 63.1774 185.315 62.8936 183 60C182.75 56.3125 182.75 56.3125 183 53C184.65 52.67 186.3 52.34 188 52C188 51.01 188 50.02 188 49C189.98 49 191.96 49 194 49C193.988 48.1776 193.977 47.3552 193.965 46.5078C193.843 31.3831 193.843 31.3831 195 26C197 24 197 24 200.25 23.625Z" fill="#FF6B36"/>
</svg>
